<svg viewBox="0 0 274 184">
  <path id="lips" fill="darkred" stroke="darkred" stroke-width="1"
    d="M 131.00,33.40 C 134.38,35.01 140.29,39.84 143.42,39.94 145.66,40.02 149.72,37.91 152.00,37.09 158.04,34.92 167.64,31.76 174.00,32.46 181.68,33.31 187.23,38.67 193.09,43.02 205.20,52.02 217.99,59.74 226.14,73.00 226.14,73.00 234.93,85.09 234.93,85.09 235.46,88.24 233.03,90.42 231.03,92.42 226.72,96.74 222.29,101.21 218.51,106.00 209.02,118.02 200.58,128.83 187.00,136.64 176.44,142.72 149.39,146.14 137.00,146.00 129.57,145.91 129.53,144.76 124.00,144.17 124.00,144.17 111.00,143.56 111.00,143.56 97.48,141.39 83.46,134.77 73.01,125.96 73.01,125.96 60.08,110.46 60.08,110.46 53.83,103.93 50.54,100.26 45.00,93.00 43.04,90.43 40.15,86.47 40.52,83.01 40.95,79.01 52.57,71.14 56.01,67.91 69.47,55.31 93.92,35.77 112.00,31.47 118.29,30.59 125.15,30.62 131.00,33.40 Z
       M 175.24,78.85 C 170.16,74.30 151.86,74.96 145.00,75.05 137.45,75.15 127.24,72.35 120.00,74.16 115.60,75.26 106.99,77.85 104.98,82.28 101.80,89.33 118.50,88.92 122.00,88.98 130.26,89.11 137.45,86.86 140.00,86.77 140.00,86.77 150.00,88.00 150.00,88.00 160.76,88.17 167.98,88.87 178.00,84.00 177.33,82.12 176.80,80.25 175.24,78.85 Z" />
</svg>
