<?xml version="1.0" encoding="UTF-8" ?>
<!DOCTYPE svg PUBLIC "-//W3C//DTD SVG 1.1//EN" "http://www.w3.org/Graphics/SVG/1.1/DTD/svg11.dtd">
<svg width="489pt" height="476pt" viewBox="0 0 489 476" version="1.1" xmlns="http://www.w3.org/2000/svg">
<path fill="#000000" d=" M 0.00 0.00 L 489.00 0.00 L 489.00 476.00 L 0.00 476.00 L 0.00 0.00 Z" />
<path fill="#FFFFFF" d=" M 229.74 38.83 C 233.83 35.92 239.42 35.17 244.06 37.16 C 249.66 39.44 253.63 44.32 256.64 49.39 C 261.19 57.27 263.81 66.09 265.64 74.95 C 268.63 89.94 269.14 105.29 268.62 120.53 C 267.47 146.41 262.73 172.03 255.69 196.93 C 272.05 168.07 291.56 140.61 316.27 118.29 C 327.43 108.38 339.65 99.24 353.65 93.78 C 361.39 90.91 370.45 88.90 378.20 92.81 C 384.49 95.86 386.77 103.51 386.32 110.03 C 385.49 120.57 380.61 130.28 375.17 139.16 C 361.13 161.20 341.59 179.13 320.91 194.84 C 307.96 204.69 294.07 213.19 280.03 221.37 C 311.09 212.51 343.42 207.24 375.79 208.32 C 390.17 209.04 404.69 210.90 418.26 215.94 C 426.00 218.96 434.01 223.10 438.54 230.37 C 441.84 235.37 441.72 242.30 438.21 247.16 C 433.02 254.81 424.23 258.92 415.80 261.95 C 395.61 268.67 374.01 269.45 352.93 268.45 C 328.08 267.01 303.47 262.37 279.57 255.49 C 303.17 268.66 325.60 284.12 345.38 302.61 C 354.63 311.33 363.22 320.79 370.67 331.10 C 377.15 340.22 382.88 350.14 385.48 361.11 C 386.91 367.37 386.95 374.52 383.10 379.97 C 379.81 384.80 373.58 386.43 368.03 386.39 C 358.52 385.93 349.58 381.98 341.41 377.35 C 320.99 365.29 304.10 348.17 289.15 329.95 C 276.46 314.12 265.19 297.16 255.45 279.36 C 264.39 310.64 269.79 343.18 268.65 375.78 C 267.93 390.36 266.08 405.09 260.85 418.81 C 257.89 426.17 253.91 433.67 247.17 438.22 C 243.13 441.04 237.68 441.81 233.10 439.90 C 227.20 437.57 223.10 432.34 219.98 427.04 C 213.81 415.67 211.04 402.81 209.48 390.08 C 205.41 352.88 211.50 315.33 221.39 279.49 C 209.79 300.96 195.80 321.17 179.70 339.51 C 166.90 353.88 152.66 367.25 136.02 377.07 C 128.00 381.63 119.32 385.65 109.99 386.32 C 103.87 386.78 97.04 384.82 93.53 379.44 C 89.45 373.12 90.30 365.04 92.30 358.15 C 96.68 343.57 105.79 331.01 115.46 319.47 C 138.31 293.19 166.98 272.58 197.20 255.59 C 167.25 264.05 136.18 269.41 104.97 268.76 C 92.30 268.43 79.57 267.12 67.30 263.83 C 58.39 261.27 49.34 257.92 42.42 251.53 C 38.76 248.02 35.81 243.24 36.04 238.02 C 36.29 231.67 40.69 226.37 45.62 222.79 C 54.01 216.83 64.03 213.73 73.99 211.58 C 99.42 206.46 125.70 207.68 151.24 211.35 C 166.70 213.69 182.00 217.01 197.01 221.38 C 167.92 204.84 140.21 185.17 117.74 160.19 C 107.68 148.48 98.11 135.86 92.98 121.13 C 90.68 113.97 89.17 105.67 92.86 98.70 C 95.08 94.10 100.04 91.50 104.95 90.87 C 111.73 90.02 118.51 91.89 124.79 94.33 C 138.44 100.04 150.40 109.07 161.39 118.84 C 185.87 141.26 205.47 168.59 221.51 197.54 C 212.47 166.09 207.15 133.34 208.36 100.56 C 209.20 85.66 211.11 70.56 216.77 56.65 C 219.69 49.89 223.44 42.99 229.74 38.83 Z" />
<path fill="#000000" d=" M 230.50 44.49 C 233.64 41.64 238.29 39.99 242.36 41.82 C 248.30 44.60 251.78 50.57 254.59 56.22 C 258.80 65.47 260.96 75.51 262.30 85.54 C 265.66 112.82 263.05 140.50 257.74 167.37 C 253.37 189.29 246.63 210.67 238.73 231.56 C 238.43 231.47 237.83 231.29 237.54 231.20 L 238.23 230.57 C 236.24 226.75 235.09 222.58 233.53 218.59 C 220.35 181.00 212.02 141.25 213.32 101.28 C 214.04 87.44 215.77 73.47 220.64 60.41 C 222.90 54.58 225.86 48.80 230.50 44.49 Z" />
<path fill="#000000" d=" M 101.82 96.87 C 108.21 94.28 115.33 96.22 121.54 98.45 C 134.03 103.25 144.96 111.31 155.05 119.95 C 173.33 135.83 188.58 154.88 202.05 174.91 C 214.21 193.56 224.95 213.18 233.62 233.68 C 210.10 223.47 187.49 211.09 166.54 196.29 C 145.04 180.94 124.73 163.30 109.42 141.60 C 103.15 132.41 97.30 122.36 95.81 111.15 C 95.01 105.84 96.33 99.15 101.82 96.87 Z" />
<path fill="#000000" d=" M 359.94 96.96 C 365.31 95.54 371.42 94.67 376.51 97.49 C 378.62 99.10 380.42 101.34 380.87 104.02 C 382.26 110.48 380.32 117.03 377.97 123.02 C 373.35 134.29 366.05 144.20 358.36 153.56 C 339.59 175.36 316.60 193.17 292.24 208.30 C 276.54 217.96 260.08 226.35 243.24 233.84 C 258.07 199.65 277.46 167.20 302.33 139.34 C 311.63 128.97 321.78 119.31 333.06 111.12 C 341.27 105.15 350.14 99.81 359.94 96.96 Z" />
<path fill="#000000" d=" M 55.83 222.59 C 70.89 215.79 87.61 213.86 103.96 213.27 C 147.79 212.39 191.27 222.60 231.89 238.57 C 198.28 251.56 162.99 260.78 126.96 263.24 C 105.98 264.44 84.45 264.05 64.24 257.70 C 57.48 255.46 50.71 252.51 45.49 247.54 C 42.51 244.58 40.09 240.31 41.38 236.01 C 43.46 229.36 49.95 225.52 55.83 222.59 Z" />
<path fill="#000000" d=" M 357.26 213.33 C 375.53 212.84 394.16 213.58 411.75 219.00 C 419.27 221.43 426.96 224.56 432.46 230.45 C 435.11 233.42 437.00 237.81 435.40 241.73 C 433.32 247.11 428.29 250.54 423.45 253.25 C 413.56 258.44 402.46 260.76 391.48 262.30 C 363.45 265.78 335.01 262.88 307.44 257.31 C 286.19 252.82 265.34 246.48 245.15 238.47 C 280.95 224.50 318.77 215.06 357.26 213.33 Z" />
<path fill="#000000" d=" M 139.34 302.31 C 167.20 277.44 199.67 258.14 233.80 243.18 C 221.27 271.94 205.54 299.41 186.10 324.08 C 174.46 338.67 161.64 352.46 146.75 363.79 C 138.12 370.28 128.88 376.32 118.50 379.59 C 112.97 381.23 106.68 382.49 101.25 379.86 C 97.49 378.05 95.74 373.80 95.66 369.82 C 95.47 362.36 98.23 355.20 101.43 348.59 C 110.78 330.80 124.54 315.73 139.34 302.31 Z" />
<path fill="#000000" d=" M 243.35 243.33 C 268.59 254.26 292.79 267.73 315.00 283.99 C 336.07 299.62 355.97 317.54 370.43 339.64 C 375.99 348.81 381.50 358.86 381.30 369.89 C 381.43 374.97 378.00 380.04 372.84 380.93 C 364.34 382.40 355.91 379.15 348.42 375.44 C 330.25 365.94 315.01 351.77 301.42 336.61 C 277.06 309.02 257.90 277.07 243.35 243.33 Z" />
<path fill="#000000" d=" M 214.52 341.02 C 217.76 308.12 226.51 275.96 238.44 245.19 C 252.07 279.54 261.20 315.89 263.41 352.86 C 264.28 369.92 263.83 387.20 260.12 403.94 C 258.40 411.04 256.30 418.17 252.64 424.54 C 249.88 429.20 246.36 434.01 240.93 435.66 C 236.46 436.93 231.99 434.30 229.04 431.10 C 222.65 423.94 219.54 414.59 217.22 405.45 C 212.35 384.36 212.47 362.45 214.52 341.02 Z" />
</svg>
