<svg xmlns="http://www.w3.org/2000/svg"><symbol id="codepen"><title>codepen</title><symbol id="codepen-codepen-logo" viewBox="0 0 120 120"><path class="outer-ring" d="M60.048 0C26.884 0 0 26.9 0 60.048s26.884 60 60 60.047c33.163 0 60.047-26.883 60.047-60.047 S93.211 0 60 0z M60.048 110.233c-27.673 0-50.186-22.514-50.186-50.186S32.375 9.9 60 9.9 c27.672 0 50.2 22.5 50.2 50.186S87.72 110.2 60 110.233z"/><path class="inner-box" d="M97.147 48.319c-0.007-0.047-0.019-0.092-0.026-0.139c-0.016-0.09-0.032-0.18-0.056-0.268 c-0.014-0.053-0.033-0.104-0.05-0.154c-0.025-0.078-0.051-0.156-0.082-0.232c-0.021-0.053-0.047-0.105-0.071-0.156 c-0.033-0.072-0.068-0.143-0.108-0.211c-0.029-0.051-0.061-0.1-0.091-0.148c-0.043-0.066-0.087-0.131-0.135-0.193 c-0.035-0.047-0.072-0.094-0.109-0.139c-0.051-0.059-0.104-0.117-0.159-0.172c-0.042-0.043-0.083-0.086-0.127-0.125 c-0.059-0.053-0.119-0.104-0.181-0.152c-0.048-0.037-0.095-0.074-0.145-0.109c-0.019-0.012-0.035-0.027-0.053-0.039L61.817 23.5 c-1.072-0.715-2.468-0.715-3.54 0L24.34 46.081c-0.018 0.012-0.034 0.027-0.053 0.039c-0.05 0.035-0.097 0.072-0.144 0.1 c-0.062 0.049-0.123 0.1-0.181 0.152c-0.045 0.039-0.086 0.082-0.128 0.125c-0.056 0.055-0.108 0.113-0.158 0.2 c-0.038 0.045-0.075 0.092-0.11 0.139c-0.047 0.062-0.092 0.127-0.134 0.193c-0.032 0.049-0.062 0.098-0.092 0.1 c-0.039 0.068-0.074 0.139-0.108 0.211c-0.024 0.051-0.05 0.104-0.071 0.156c-0.031 0.076-0.057 0.154-0.082 0.2 c-0.017 0.051-0.035 0.102-0.05 0.154c-0.023 0.088-0.039 0.178-0.056 0.268c-0.008 0.047-0.02 0.092-0.025 0.1 c-0.019 0.137-0.029 0.275-0.029 0.416V71.36c0 0.1 0 0.3 0 0.418c0.006 0 0 0.1 0 0.1 c0.017 0.1 0 0.2 0.1 0.268c0.015 0.1 0 0.1 0.1 0.154c0.025 0.1 0.1 0.2 0.1 0.2 c0.021 0.1 0 0.1 0.1 0.154c0.034 0.1 0.1 0.1 0.1 0.213c0.029 0 0.1 0.1 0.1 0.1 c0.042 0.1 0.1 0.1 0.1 0.193c0.035 0 0.1 0.1 0.1 0.139c0.05 0.1 0.1 0.1 0.2 0.2 c0.042 0 0.1 0.1 0.1 0.125c0.058 0.1 0.1 0.1 0.2 0.152c0.047 0 0.1 0.1 0.1 0.1 c0.019 0 0 0 0.1 0.039L58.277 96.64c0.536 0.4 1.2 0.5 1.8 0.537c0.616 0 1.233-0.18 1.77-0.537 l33.938-22.625c0.018-0.012 0.034-0.027 0.053-0.039c0.05-0.035 0.097-0.072 0.145-0.109c0.062-0.049 0.122-0.1 0.181-0.152 c0.044-0.039 0.085-0.082 0.127-0.125c0.056-0.055 0.108-0.113 0.159-0.172c0.037-0.045 0.074-0.09 0.109-0.139 c0.048-0.062 0.092-0.127 0.135-0.193c0.03-0.049 0.062-0.098 0.091-0.146c0.04-0.07 0.075-0.141 0.108-0.213 c0.024-0.051 0.05-0.102 0.071-0.154c0.031-0.078 0.057-0.156 0.082-0.234c0.017-0.051 0.036-0.102 0.05-0.154 c0.023-0.088 0.04-0.178 0.056-0.268c0.008-0.045 0.02-0.092 0.026-0.137c0.018-0.139 0.028-0.277 0.028-0.418V48.735 C97.176 48.6 97.2 48.5 97.1 48.319z M63.238 32.073l25.001 16.666L77.072 56.21l-13.834-9.254V32.073z M56.856 32.1 v14.883L43.023 56.21l-11.168-7.471L56.856 32.073z M29.301 54.708l7.983 5.34l-7.983 5.34V54.708z M56.856 88.022L31.855 71.4 l11.168-7.469l13.833 9.252V88.022z M60.048 67.597l-11.286-7.549l11.286-7.549l11.285 7.549L60.048 67.597z M63.238 88.022V73.14 l13.834-9.252l11.167 7.469L63.238 88.022z M90.794 65.388l-7.982-5.34l7.982-5.34V65.388z"/></symbol></symbol><symbol viewBox="0 0 100 100" id="github"><title>github</title> <g> <path d="M50.049,0.3c14.18,0.332,25.969,5.307,35.366,14.923S99.675,36.9,100,51.409c-0.195,11.445-3.415,21.494-9.658,30.146
		c-6.244,8.65-14.406,14.772-24.488,18.366c-1.234,0.199-2.112,0.017-2.633-0.549c-0.521-0.565-0.781-1.215-0.781-1.946
		l0.098-14.074c0-2.396-0.342-4.377-1.023-5.939c-0.684-1.564-1.479-2.745-2.391-3.544c5.788-0.399,10.977-2.312,15.561-5.739
		c4.586-3.428,7.01-9.934,7.27-19.517c0-2.795-0.455-5.324-1.366-7.586c-0.91-2.263-2.179-4.293-3.805-6.09
		c0.391-0.665,0.716-2.196,0.976-4.592c0.262-2.396-0.229-5.391-1.463-8.983c0-0.2-1.105-0.15-3.316,0.149
		c-2.211,0.299-5.691,2.013-10.439,5.141c-4.032-1.131-8.18-1.697-12.438-1.697c-4.26,0-8.439,0.566-12.537,1.697
		c-4.748-3.128-8.228-4.841-10.439-5.141c-2.211-0.3-3.317-0.35-3.317-0.149c-1.235,3.593-1.723,6.588-1.463,8.983
		c0.26,2.396,0.585,3.927,0.976,4.592c-1.626,1.73-2.894,3.743-3.805,6.039c-0.911,2.296-1.366,4.842-1.366,7.637
		c0.26,9.518,2.667,16.006,7.219,19.466c4.553,3.461,9.724,5.391,15.512,5.79c-0.715,0.599-1.366,1.464-1.951,2.596
		s-1.008,2.528-1.268,4.192c-1.561,0.865-3.772,1.281-6.634,1.248c-2.862-0.033-5.496-1.881-7.902-5.54
		c0-0.2-0.65-1.032-1.951-2.496c-1.301-1.464-3.187-2.396-5.659-2.795c-0.325-0.066-0.976,0.05-1.951,0.35
		c-0.976,0.3-0.456,1.214,1.561,2.745c0.065-0.066,0.699,0.449,1.902,1.547c1.203,1.1,2.423,3.078,3.659,5.939
		c-0.195,0.466,0.862,1.863,3.17,4.191c2.309,2.329,6.846,2.93,13.61,1.797l0.098,9.483c0,0.731-0.26,1.381-0.781,1.946
		c-0.52,0.564-1.398,0.748-2.634,0.549c-10.082-3.594-18.244-9.716-24.488-18.367C3.415,72.604,0.195,62.556,0,51.11
		C0.325,36.602,5.187,24.54,14.585,14.923C23.984,5.308,35.772,0.333,49.951,0L50.049,0.3z"/> </g> </symbol><symbol viewBox="0 0 32 32" id="linkedin"><title>linkedin</title> <path d="M30.7,0H1.3C0.6,0,0,0.6,0,1.3v29.3C0,31.4,0.6,32,1.3,32h29.3c0.7,0,1.3-0.6,1.3-1.3V1.3
	C32,0.6,31.4,0,30.7,0z M9.5,27.3H4.7V12h4.8V27.3z M7.1,9.9c-1.5,0-2.8-1.2-2.8-2.8c0-1.5,1.2-2.8,2.8-2.8c1.5,0,2.8,1.2,2.8,2.8
	C9.9,8.7,8.6,9.9,7.1,9.9z M27.3,27.3h-4.7v-7.4c0-1.8,0-4-2.5-4c-2.5,0-2.8,1.9-2.8,3.9v7.6h-4.7V12H17v2.1h0.1
	c0.6-1.2,2.2-2.5,4.5-2.5c4.8,0,5.7,3.2,5.7,7.3V27.3z"/> </symbol><symbol viewBox="299.5 391.7 13 10.6" id="twitter"><title>twitter</title><path class="icon__svg" d="M312.5 393c-0.5 0.2-1 0.4-1.5 0.4 0.6-0.3 1-0.9 1.2-1.5 -0.5 0.3-1.1 0.5-1.7 0.6 -0.5-0.5-1.2-0.8-1.9-0.8 -1.5 0-2.7 1.2-2.7 2.7 0 0.2 0 0.4 0.1 0.6 -2.2-0.1-4.2-1.2-5.5-2.8 -0.2 0.4-0.4 0.9-0.4 1.3 0 0.9 0.5 1.7 1.2 2.2 -0.4 0-0.8-0.1-1.2-0.3v0c0 1.3 0.9 2.4 2.1 2.6 -0.2 0.1-0.5 0.1-0.7 0.1 -0.2 0-0.3 0-0.5 0 0.3 1.1 1.3 1.8 2.5 1.9 -0.9 0.7-2.1 1.1-3.3 1.1 -0.2 0-0.4 0-0.6 0 1.2 0.8 2.6 1.2 4.1 1.2 4.9 0 7.6-4.1 7.6-7.6l0-0.3C311.7 394 312.1 393.5 312.5 393z"/></symbol><symbol viewBox="0 0 32 32.5" id="url"><title>url</title> <g> <path d="M30.7,12.2L24,18.9c-0.7,0.7-1.9,0.7-2.7,0L20,17.6l6.7-6.7l-5.3-5.3l-6.7,6.7l-1.3-1.3c-0.7-0.7-0.7-1.9,0-2.7L20,1.6
		c0.7-0.7,1.9-0.7,2.7,0l8,8C31.4,10.3,31.4,11.5,30.7,12.2z M17.3,20.3l-6.7,6.7l-5.3-5.3l6.7-6.7l-1.3-1.3c-0.7-0.7-1.9-0.7-2.7,0
		l-6.7,6.7c-0.7,0.7-0.7,1.9,0,2.7l8,8c0.7,0.7,1.9,0.7,2.7,0l6.7-6.7c0.7-0.7,0.7-1.9,0-2.7L17.3,20.3z M10.7,21.6
		c0.7,0.7,1.9,0.7,2.7,0l8-8c0.7-0.7,0.7-1.9,0-2.7c-0.7-0.7-1.9-0.7-2.7,0l-8,8C9.9,19.7,9.9,20.9,10.7,21.6z"/> </g> </symbol></svg>