<?xml version="1.0" encoding="UTF-8" ?>
<!DOCTYPE svg PUBLIC "-//W3C//DTD SVG 1.1//EN" "http://www.w3.org/Graphics/SVG/1.1/DTD/svg11.dtd">
<svg width="600pt" height="590pt" viewBox="0 0 600 590" version="1.1" xmlns="http://www.w3.org/2000/svg">
<path fill="#fcfcfc" d=" M 0.00 0.00 L 277.12 0.00 C 271.81 -0.17 267.33 3.60 264.88 8.03 C 262.46 12.76 257.89 15.88 255.39 20.56 C 245.63 36.19 244.85 55.16 242.98 72.97 C 241.63 81.80 240.97 90.89 242.60 99.73 C 230.26 82.95 221.24 63.52 205.82 49.15 C 202.71 46.13 199.00 43.83 195.55 41.22 C 186.47 34.46 176.45 28.22 165.09 26.35 C 159.69 25.43 153.47 27.60 150.97 32.75 C 147.92 38.06 149.39 44.31 148.75 50.06 C 145.80 60.17 146.30 71.06 149.04 81.16 C 152.48 94.02 158.78 105.82 164.00 117.99 C 167.07 125.39 171.11 132.35 175.90 138.76 C 164.95 126.83 154.53 114.10 141.13 104.78 C 134.45 100.30 126.88 96.93 118.88 95.77 C 109.21 94.40 99.91 90.65 90.06 90.63 C 85.59 90.55 80.79 92.80 79.15 97.19 C 76.72 103.26 78.80 109.79 79.83 115.92 C 81.72 127.82 87.64 138.56 94.09 148.55 C 80.24 145.33 66.00 148.29 51.99 147.21 C 45.52 147.36 39.38 143.65 32.88 145.36 C 28.20 146.06 24.44 150.18 24.25 154.93 C 23.83 162.22 27.35 168.98 30.73 175.20 C 33.90 180.55 37.54 185.69 42.15 189.91 C 45.40 192.97 47.80 196.83 51.09 199.86 C 64.96 213.40 83.31 220.58 100.08 229.69 C 85.73 229.12 71.38 229.01 57.03 229.06 C 46.34 228.07 35.38 228.56 25.07 231.72 C 18.82 233.41 12.56 236.31 8.39 241.42 C 3.81 246.88 3.88 255.44 7.92 261.14 C 18.61 269.60 29.72 277.64 41.69 284.24 C 49.12 288.84 57.46 291.62 65.20 295.64 C 77.74 301.95 91.87 303.64 105.66 304.97 C 87.03 310.03 69.01 317.09 51.06 324.13 C 41.28 329.33 32.05 335.49 22.99 341.84 C 14.71 348.00 6.77 354.87 0.74 363.30 C -1.16 365.48 1.47 367.56 2.83 369.14 C 12.29 378.70 25.96 382.29 38.88 384.15 C 50.57 385.59 62.45 385.59 74.16 384.39 C 68.67 391.41 63.39 398.71 60.02 407.02 C 58.08 411.93 52.67 415.34 52.97 421.09 C 53.19 426.09 58.56 428.50 62.82 429.32 C 70.46 430.71 78.28 429.82 85.99 429.67 C 109.11 429.28 131.47 422.32 152.89 414.14 C 144.87 425.30 139.36 438.02 134.65 450.87 C 132.43 457.34 131.13 464.11 128.44 470.43 C 125.18 478.81 123.11 487.84 123.72 496.88 C 124.04 502.00 126.17 507.35 130.56 510.30 C 135.63 513.61 142.27 513.68 147.90 511.95 C 152.78 508.69 157.56 505.28 162.57 502.20 C 159.20 509.73 157.48 518.48 160.26 526.47 C 162.36 533.04 168.24 538.17 175.02 539.39 C 186.13 540.20 196.60 534.79 204.91 527.86 C 210.42 523.52 215.68 518.89 221.17 514.53 C 222.78 523.81 224.68 533.29 229.50 541.53 C 232.53 546.58 237.87 550.56 243.97 550.45 C 252.23 550.40 259.20 545.18 265.40 540.28 C 276.52 530.65 284.21 517.80 290.76 504.79 C 289.29 520.57 288.62 536.80 292.73 552.28 C 295.10 561.89 299.34 570.97 304.83 579.20 C 307.69 583.99 311.52 588.88 317.33 590.00 L 0.00 590.00 L 0.00 0.00 Z" />
<path fill="#171717" d=" M 277.12 0.00 L 278.62 0.00 C 281.88 0.88 285.03 2.30 287.59 4.54 C 294.99 10.92 300.32 19.45 303.75 28.54 C 314.58 59.86 316.31 93.25 318.55 126.04 C 319.74 134.93 320.83 144.00 319.30 152.93 C 320.76 147.53 323.15 142.47 325.17 137.28 C 330.99 122.39 337.50 107.78 344.23 93.28 C 355.65 73.93 367.36 54.33 383.47 38.44 C 386.75 35.07 390.80 32.43 393.42 28.45 C 395.53 25.16 398.58 22.32 402.44 21.31 C 409.52 19.00 416.81 21.64 423.97 21.97 C 427.00 22.20 429.94 21.33 432.93 21.06 C 436.60 22.96 438.54 26.95 440.55 30.38 C 446.28 41.92 449.02 55.28 446.86 68.08 C 442.97 83.57 440.46 99.67 432.93 113.96 C 437.71 109.95 442.66 106.11 447.96 102.79 C 457.45 97.20 466.55 90.80 476.88 86.78 C 493.96 79.64 514.19 78.20 531.31 85.92 C 530.61 90.75 528.17 95.05 526.55 99.60 C 519.86 116.82 514.38 135.02 502.76 149.74 C 499.13 154.76 495.08 159.48 491.86 164.78 C 497.35 163.05 502.22 159.88 507.37 157.38 C 519.21 151.41 531.67 146.25 544.85 144.21 C 552.82 142.98 560.94 143.48 568.90 144.59 C 573.88 145.34 578.98 148.69 579.92 153.93 C 581.57 161.79 578.34 169.50 576.16 176.92 C 575.20 179.51 574.93 182.67 572.55 184.43 C 561.66 193.21 550.91 202.24 539.16 209.87 C 543.53 207.77 548.49 209.40 552.86 210.70 C 562.47 212.79 572.41 211.77 582.10 213.22 C 587.10 213.87 592.43 215.07 596.14 218.75 C 598.72 221.22 599.88 224.81 600.00 228.32 L 600.00 230.02 C 590.58 245.83 575.96 258.06 559.96 266.87 C 551.55 271.63 542.29 274.53 533.51 278.52 C 518.47 284.11 502.20 285.81 486.23 285.44 C 504.09 288.88 521.44 295.04 537.55 303.48 C 542.17 305.82 546.25 309.23 551.22 310.87 C 558.37 313.37 564.94 317.31 570.95 321.86 C 575.85 325.91 581.15 330.43 582.66 336.90 C 583.76 341.13 581.42 345.47 578.00 347.88 C 574.28 350.61 569.68 351.58 565.61 353.62 C 552.21 359.73 537.22 359.79 522.83 361.10 C 532.30 368.16 539.34 378.22 543.77 389.09 C 546.52 396.57 548.00 405.50 543.88 412.77 C 540.27 419.21 532.62 421.95 525.61 422.43 C 511.72 422.81 497.73 422.93 484.01 420.43 C 493.70 432.98 500.94 447.99 502.06 463.98 C 502.69 472.98 499.79 482.71 492.61 488.56 C 491.03 489.90 488.87 489.26 487.03 489.17 C 472.95 487.40 458.46 486.44 445.25 480.84 C 439.22 478.60 433.84 474.86 429.37 470.27 C 428.57 483.41 431.47 496.89 427.76 509.76 C 426.39 514.26 424.11 518.63 420.64 521.84 C 411.76 524.79 402.10 522.48 394.04 518.24 C 394.38 529.45 392.21 540.87 386.84 550.78 C 383.37 556.87 377.36 562.29 370.00 562.45 C 365.06 562.89 360.68 560.13 355.88 559.58 C 352.36 559.02 349.16 557.36 346.11 555.60 C 342.59 565.46 338.07 575.16 331.17 583.14 C 328.25 586.52 324.36 589.28 319.87 590.00 L 317.33 590.00 C 311.52 588.88 307.69 583.99 304.83 579.20 C 299.34 570.97 295.10 561.89 292.73 552.28 C 288.62 536.80 289.29 520.57 290.76 504.79 C 284.21 517.80 276.52 530.65 265.40 540.28 C 259.20 545.18 252.23 550.40 243.97 550.45 C 237.87 550.56 232.53 546.58 229.50 541.53 C 224.68 533.29 222.78 523.81 221.17 514.53 C 215.68 518.89 210.42 523.52 204.91 527.86 C 196.60 534.79 186.13 540.20 175.02 539.39 C 168.24 538.17 162.36 533.04 160.26 526.47 C 157.48 518.48 159.20 509.73 162.57 502.20 C 157.56 505.28 152.78 508.69 147.90 511.95 C 142.27 513.68 135.63 513.61 130.56 510.30 C 126.17 507.35 124.04 502.00 123.72 496.88 C 123.11 487.84 125.18 478.81 128.44 470.43 C 131.13 464.11 132.43 457.34 134.65 450.87 C 139.36 438.02 144.87 425.30 152.89 414.14 C 131.47 422.32 109.11 429.28 85.99 429.67 C 78.28 429.82 70.46 430.71 62.82 429.32 C 58.56 428.50 53.19 426.09 52.97 421.09 C 52.67 415.34 58.08 411.93 60.02 407.02 C 63.39 398.71 68.67 391.41 74.16 384.39 C 62.45 385.59 50.57 385.59 38.88 384.15 C 25.96 382.29 12.29 378.70 2.83 369.14 C 1.47 367.56 -1.16 365.48 0.74 363.30 C 6.77 354.87 14.71 348.00 22.99 341.84 C 32.05 335.49 41.28 329.33 51.06 324.13 C 69.01 317.09 87.03 310.03 105.66 304.97 C 91.87 303.64 77.74 301.95 65.20 295.64 C 57.46 291.62 49.12 288.84 41.69 284.24 C 29.72 277.64 18.61 269.60 7.92 261.14 C 3.88 255.44 3.81 246.88 8.39 241.42 C 12.56 236.31 18.82 233.41 25.07 231.72 C 35.38 228.56 46.34 228.07 57.03 229.06 C 71.38 229.01 85.73 229.12 100.08 229.69 C 83.31 220.58 64.96 213.40 51.09 199.86 C 47.80 196.83 45.40 192.97 42.15 189.91 C 37.54 185.69 33.90 180.55 30.73 175.20 C 27.35 168.98 23.83 162.22 24.25 154.93 C 24.44 150.18 28.20 146.06 32.88 145.36 C 39.38 143.65 45.52 147.36 51.99 147.21 C 66.00 148.29 80.24 145.33 94.09 148.55 C 87.64 138.56 81.72 127.82 79.83 115.92 C 78.80 109.79 76.72 103.26 79.15 97.19 C 80.79 92.80 85.59 90.55 90.06 90.63 C 99.91 90.65 109.21 94.40 118.88 95.77 C 126.88 96.93 134.45 100.30 141.13 104.78 C 154.53 114.10 164.95 126.83 175.90 138.76 C 171.11 132.35 167.07 125.39 164.00 117.99 C 158.78 105.82 152.48 94.02 149.04 81.16 C 146.30 71.06 145.80 60.17 148.75 50.06 C 149.39 44.31 147.92 38.06 150.97 32.75 C 153.47 27.60 159.69 25.43 165.09 26.35 C 176.45 28.22 186.47 34.46 195.55 41.22 C 199.00 43.83 202.71 46.13 205.82 49.15 C 221.24 63.52 230.26 82.95 242.60 99.73 C 240.97 90.89 241.63 81.80 242.98 72.97 C 244.85 55.16 245.63 36.19 255.39 20.56 C 257.89 15.88 262.46 12.76 264.88 8.03 C 267.33 3.60 271.81 -0.17 277.12 0.00 Z" />
<path fill="#fcfcfc" d=" M 278.62 0.00 L 600.00 0.00 L 600.00 228.32 C 599.88 224.81 598.72 221.22 596.14 218.75 C 592.43 215.07 587.10 213.87 582.10 213.22 C 572.41 211.77 562.47 212.79 552.86 210.70 C 548.49 209.40 543.53 207.77 539.16 209.87 C 550.91 202.24 561.66 193.21 572.55 184.43 C 574.93 182.67 575.20 179.51 576.16 176.92 C 578.34 169.50 581.57 161.79 579.92 153.93 C 578.98 148.69 573.88 145.34 568.90 144.59 C 560.94 143.48 552.82 142.98 544.85 144.21 C 531.67 146.25 519.21 151.41 507.37 157.38 C 502.22 159.88 497.35 163.05 491.86 164.78 C 495.08 159.48 499.13 154.76 502.76 149.74 C 514.38 135.02 519.86 116.82 526.55 99.60 C 528.17 95.05 530.61 90.75 531.31 85.92 C 514.19 78.20 493.96 79.64 476.88 86.78 C 466.55 90.80 457.45 97.20 447.96 102.79 C 442.66 106.11 437.71 109.95 432.93 113.96 C 440.46 99.67 442.97 83.57 446.86 68.08 C 449.02 55.28 446.28 41.92 440.55 30.38 C 438.54 26.95 436.60 22.96 432.93 21.06 C 429.94 21.33 427.00 22.20 423.97 21.97 C 416.81 21.64 409.52 19.00 402.44 21.31 C 398.58 22.32 395.53 25.16 393.42 28.45 C 390.80 32.43 386.75 35.07 383.47 38.44 C 367.36 54.33 355.65 73.93 344.23 93.28 C 337.50 107.78 330.99 122.39 325.17 137.28 C 323.15 142.47 320.76 147.53 319.30 152.93 C 320.83 144.00 319.74 134.93 318.55 126.04 C 316.31 93.25 314.58 59.86 303.75 28.54 C 300.32 19.45 294.99 10.92 287.59 4.54 C 285.03 2.30 281.88 0.88 278.62 0.00 Z" />
<path fill="#fcfcfc" d=" M 273.15 6.05 C 276.39 3.78 280.63 5.39 283.49 7.52 C 290.73 13.36 295.83 21.51 299.11 30.13 C 307.70 54.81 310.39 80.99 312.34 106.90 C 313.14 116.24 313.16 125.67 314.75 134.93 C 315.64 145.29 314.62 155.73 312.56 165.90 C 309.68 178.14 306.82 190.40 303.33 202.49 C 299.37 211.74 299.52 222.05 296.89 231.66 C 294.13 233.07 295.01 236.71 293.77 239.14 C 291.50 238.28 289.90 236.41 288.36 234.63 C 287.75 227.55 285.06 220.86 283.56 213.95 C 277.61 193.54 269.98 173.67 263.42 153.45 C 256.97 133.89 248.35 114.66 246.74 93.88 C 246.41 88.28 246.45 82.63 247.40 77.08 C 249.13 64.03 249.33 50.67 253.13 37.96 C 255.38 29.90 259.18 22.09 265.15 16.12 C 268.34 13.16 269.30 8.36 273.15 6.05 Z" />
<path fill="#fcfcfc" d=" M 403.05 26.26 C 411.23 23.40 419.70 27.90 428.04 26.72 C 429.53 26.80 431.71 25.29 432.64 27.14 C 437.78 33.70 440.41 41.91 441.88 50.02 C 443.09 56.96 443.18 64.22 441.08 71.01 C 437.41 86.60 434.60 102.96 425.58 116.56 C 416.86 128.34 409.17 140.85 401.00 153.01 C 388.71 170.83 374.06 186.84 360.87 203.98 C 353.83 212.35 347.99 221.68 341.25 230.26 C 337.38 232.12 336.09 236.49 333.54 239.63 C 328.54 244.07 321.17 244.64 314.99 242.65 C 310.03 240.98 304.89 238.57 301.91 234.07 C 305.48 220.71 309.54 207.47 312.10 193.87 C 319.27 161.93 332.24 131.71 345.57 101.95 C 348.71 94.11 353.68 87.22 357.87 79.93 C 367.38 65.12 377.29 50.27 390.56 38.52 C 392.71 36.66 395.00 34.88 396.58 32.46 C 398.28 30.00 400.06 27.27 403.05 26.26 Z" />
<path fill="#fcfcfc" d=" M 155.21 35.25 C 156.97 31.20 162.16 30.41 165.99 31.48 C 179.10 34.27 189.67 43.00 200.21 50.73 C 216.39 64.56 225.20 84.42 237.78 101.16 C 239.59 103.68 242.00 105.91 242.93 108.95 C 253.06 139.36 263.77 169.57 273.89 199.98 C 277.36 209.66 280.08 219.57 282.58 229.54 C 284.27 236.07 281.21 242.67 277.78 248.08 C 275.51 251.63 270.85 252.27 267.12 250.91 C 254.47 233.83 242.02 216.59 229.44 199.44 C 222.78 190.17 215.75 181.15 209.52 171.57 C 196.08 153.13 177.52 138.07 168.69 116.53 C 162.26 101.35 153.80 86.56 151.87 69.92 C 151.31 63.24 151.73 56.43 153.87 50.04 C 154.20 45.14 152.82 39.86 155.21 35.25 Z" />
<path fill="#fcfcfc" d=" M 463.90 98.77 C 476.05 91.59 489.65 85.97 503.95 85.71 C 511.24 85.38 518.56 86.50 525.48 88.78 C 519.76 103.00 515.11 117.65 508.46 131.49 C 502.14 144.23 492.22 154.63 484.49 166.46 C 481.34 171.59 476.62 175.45 473.27 180.42 C 470.59 184.04 468.31 187.95 465.53 191.49 C 461.61 196.19 457.15 200.41 452.50 204.37 C 428.01 226.80 399.64 244.35 371.41 261.61 C 367.17 264.47 361.87 265.03 356.91 265.47 C 353.71 264.32 350.54 262.85 347.05 263.06 C 344.24 263.48 341.18 261.72 340.60 258.84 C 340.19 249.90 343.10 241.27 345.79 232.88 C 361.29 209.68 379.71 188.61 397.25 166.95 C 399.99 163.42 403.20 160.22 405.45 156.33 C 416.05 136.94 431.00 119.70 449.56 107.55 C 454.36 104.66 459.17 101.78 463.90 98.77 Z" />
<path fill="#fcfcfc" d=" M 83.77 98.94 C 84.89 96.06 88.29 95.43 91.02 95.50 C 100.28 95.92 109.03 99.35 118.16 100.60 C 125.65 101.71 132.68 104.93 138.90 109.17 C 155.76 121.14 167.51 138.55 182.72 152.32 C 185.03 154.33 187.53 156.12 189.72 158.26 C 215.84 189.60 237.83 224.07 262.01 256.88 C 262.88 263.82 257.46 269.00 253.67 274.09 C 233.88 260.54 213.65 247.60 193.65 234.36 C 184.31 227.97 174.19 222.72 165.48 215.44 C 150.79 204.38 137.71 191.36 125.12 178.00 C 119.10 171.03 112.47 164.54 107.08 157.04 C 95.95 144.28 86.45 129.12 84.08 112.06 C 83.33 107.79 82.11 103.15 83.77 98.94 Z" />
<path fill="#fcfcfc" d=" M 500.38 166.55 C 514.76 158.86 529.70 151.43 545.99 149.00 C 553.35 147.83 560.83 148.47 568.17 149.43 C 570.84 149.88 573.72 151.27 574.82 153.90 C 576.66 159.98 574.28 166.21 572.56 172.02 C 571.49 174.84 571.05 177.96 569.49 180.55 C 547.17 198.98 523.65 217.88 495.02 225.15 C 474.25 232.18 453.58 239.51 432.85 246.66 C 416.06 251.99 399.21 257.16 382.17 261.62 C 396.34 251.89 411.15 243.10 424.96 232.84 C 436.61 225.04 446.97 215.52 458.33 207.33 C 470.69 197.76 475.06 181.08 488.10 172.21 C 491.72 169.35 496.47 168.86 500.38 166.55 Z" />
<path fill="#fcfcfc" d=" M 31.26 151.24 C 35.85 148.50 41.35 150.54 46.13 151.56 C 60.40 153.52 74.85 150.77 89.13 152.57 C 94.88 153.30 100.68 156.02 103.85 161.06 C 105.73 163.69 106.08 167.17 108.37 169.53 C 126.34 189.93 145.08 210.33 168.48 224.62 C 195.24 241.44 221.73 258.67 248.12 276.07 C 247.94 278.02 247.87 280.50 246.02 281.68 C 244.41 282.07 242.87 281.16 241.47 280.53 C 231.75 275.24 224.04 266.74 213.87 262.22 C 191.39 256.11 173.49 239.52 150.99 233.44 C 139.85 230.48 128.18 231.31 116.88 229.38 C 112.16 228.57 107.06 228.66 102.97 225.81 C 86.55 216.52 68.27 209.75 54.55 196.38 C 51.59 193.68 49.43 190.27 46.60 187.44 C 39.09 180.55 33.44 171.67 30.08 162.07 C 29.04 158.58 27.96 153.83 31.26 151.24 Z" />
<path fill="#fcfcfc" d=" M 486.84 235.32 C 506.00 233.33 520.31 218.31 538.85 214.39 C 542.84 213.50 547.03 213.79 550.84 215.29 C 562.73 218.15 575.26 216.09 587.12 219.17 C 591.66 220.17 596.43 224.74 594.59 229.64 C 583.10 246.85 565.86 259.74 546.91 267.73 C 537.33 271.26 528.20 276.15 518.05 277.89 C 506.55 280.40 494.75 280.61 483.05 281.00 C 475.40 281.04 467.71 281.84 460.10 280.79 C 454.41 279.94 448.75 278.89 443.03 278.25 C 414.97 275.77 386.97 280.15 359.09 282.61 C 357.48 282.01 357.00 280.21 356.13 278.90 C 356.99 276.74 357.67 274.50 358.54 272.34 C 363.29 267.83 370.29 269.89 376.00 267.85 C 396.00 263.59 415.44 257.21 434.93 251.12 C 451.97 245.02 469.32 239.80 486.84 235.32 Z" />
<path fill="#fcfcfc" d=" M 559.96 266.87 C 575.96 258.06 590.58 245.83 600.00 230.02 L 600.00 590.00 L 319.87 590.00 C 324.36 589.28 328.25 586.52 331.17 583.14 C 338.07 575.16 342.59 565.46 346.11 555.60 C 349.16 557.36 352.36 559.02 355.88 559.58 C 360.68 560.13 365.06 562.89 370.00 562.45 C 377.36 562.29 383.37 556.87 386.84 550.78 C 392.21 540.87 394.38 529.45 394.04 518.24 C 402.10 522.48 411.76 524.79 420.64 521.84 C 424.11 518.63 426.39 514.26 427.76 509.76 C 431.47 496.89 428.57 483.41 429.37 470.27 C 433.84 474.86 439.22 478.60 445.25 480.84 C 458.46 486.44 472.95 487.40 487.03 489.17 C 488.87 489.26 491.03 489.90 492.61 488.56 C 499.79 482.71 502.69 472.98 502.06 463.98 C 500.94 447.99 493.70 432.98 484.01 420.43 C 497.73 422.93 511.72 422.81 525.61 422.43 C 532.62 421.95 540.27 419.21 543.88 412.77 C 548.00 405.50 546.52 396.57 543.77 389.09 C 539.34 378.22 532.30 368.16 522.83 361.10 C 537.22 359.79 552.21 359.73 565.61 353.62 C 569.68 351.58 574.28 350.61 578.00 347.88 C 581.42 345.47 583.76 341.13 582.66 336.90 C 581.15 330.43 575.85 325.91 570.95 321.86 C 564.94 317.31 558.37 313.37 551.22 310.87 C 546.25 309.23 542.17 305.82 537.55 303.48 C 521.44 295.04 504.09 288.88 486.23 285.44 C 502.20 285.81 518.47 284.11 533.51 278.52 C 542.29 274.53 551.55 271.63 559.96 266.87 Z" />
<path fill="#fcfcfc" d=" M 29.45 235.57 C 38.44 233.33 47.81 233.05 56.99 234.00 C 86.33 233.63 115.68 235.02 144.90 237.64 C 148.67 237.82 152.33 238.77 155.79 240.28 C 165.57 244.56 175.18 249.24 184.45 254.53 C 192.57 259.19 201.02 263.35 209.96 266.19 C 222.57 270.60 230.96 282.40 243.64 286.58 C 244.37 288.72 243.25 290.78 242.62 292.77 C 229.06 295.26 215.44 287.09 201.91 291.21 C 176.77 291.20 151.96 295.83 127.16 299.45 C 123.13 299.94 119.11 301.10 115.02 300.64 C 98.95 299.56 82.31 298.52 67.58 291.38 C 59.92 287.31 51.59 284.58 44.18 280.02 C 32.53 273.65 21.83 265.73 11.30 257.70 C 9.58 253.64 9.01 248.56 11.91 244.89 C 16.11 239.40 23.03 237.22 29.45 235.57 Z" />
<path fill="#fcfcfc" d=" M 390.99 284.52 C 408.96 282.56 427.14 281.41 445.16 283.41 C 465.90 286.81 487.00 289.04 506.98 295.91 C 520.77 300.24 533.87 306.53 546.14 314.11 C 555.53 317.47 564.62 322.18 571.85 329.16 C 574.94 331.98 578.28 335.70 577.94 340.17 C 576.05 345.39 569.83 346.18 565.44 348.32 C 550.41 355.73 533.24 354.88 517.00 356.64 C 512.60 357.36 508.25 356.20 503.90 355.77 C 479.74 352.80 455.70 348.76 432.00 343.19 C 410.83 338.47 389.19 334.22 369.69 324.31 C 365.22 319.45 359.26 315.52 352.38 315.74 C 349.37 313.46 346.44 310.98 344.18 307.94 C 342.46 304.79 343.83 301.15 344.98 298.06 C 346.44 293.50 350.99 291.26 354.24 288.14 C 366.48 286.83 378.74 285.75 390.99 284.52 Z" />
<path fill="#fcfcfc" d=" M 203.04 296.05 C 213.34 293.11 223.72 297.32 234.03 298.05 C 236.45 297.65 237.91 301.54 235.74 302.77 C 231.67 304.66 227.26 302.60 223.02 302.94 C 204.34 303.22 186.74 310.40 170.04 318.14 C 157.48 324.38 144.74 330.34 132.85 337.82 C 126.81 341.82 120.69 345.71 114.66 349.74 C 109.26 353.66 103.98 357.73 98.62 361.70 C 91.15 367.19 84.33 373.53 76.93 379.09 C 60.72 381.13 43.98 380.99 28.03 377.09 C 19.81 374.79 11.48 371.48 5.64 364.99 C 17.76 349.22 35.35 339.04 52.16 329.01 C 65.76 323.36 79.64 318.41 93.56 313.59 C 107.20 309.55 120.89 305.38 135.08 303.73 C 157.68 300.79 180.19 296.36 203.04 296.05 Z" />
<path fill="#fcfcfc" d=" M 177.65 321.50 C 198.35 311.75 221.40 308.76 244.04 308.06 C 251.09 314.75 261.68 319.21 264.11 329.60 C 241.39 348.97 220.15 370.06 196.56 388.40 C 193.59 390.62 190.99 393.48 187.38 394.69 C 158.97 406.14 130.78 419.73 100.07 423.68 C 91.11 425.03 82.00 424.82 72.97 425.13 C 67.83 425.24 62.17 425.18 57.92 421.87 C 57.53 416.93 62.51 414.23 64.05 409.97 C 70.35 394.82 81.60 382.33 93.96 371.82 C 109.00 359.26 125.22 348.16 142.01 338.08 C 153.46 331.71 165.04 325.30 177.65 321.50 Z" />
<path fill="#fcfcfc" d=" M 349.08 322.07 C 352.45 319.91 356.91 320.75 360.18 322.72 C 362.80 324.01 364.43 326.54 366.70 328.28 C 384.60 337.73 404.54 342.17 424.17 346.44 C 455.50 353.92 487.37 358.71 518.95 364.92 C 521.54 365.74 523.41 367.92 525.38 369.69 C 532.18 376.87 537.85 385.42 540.53 395.01 C 542.13 401.09 542.36 408.79 537.18 413.27 C 531.63 417.97 523.87 417.75 517.02 417.69 C 495.60 418.24 473.13 415.87 454.39 404.67 C 447.05 399.82 439.17 395.86 431.59 391.42 C 421.44 385.56 411.35 379.60 401.06 374.02 C 388.07 367.27 376.06 358.67 365.36 348.69 C 361.28 344.72 357.64 340.31 353.43 336.47 C 351.20 334.34 349.47 331.72 348.31 328.87 C 347.28 326.62 348.63 324.28 349.08 322.07 Z" />
<path fill="#fcfcfc" d=" M 313.98 342.10 C 319.22 336.62 327.06 335.68 334.09 334.07 C 342.91 335.52 350.11 341.66 356.18 347.86 C 362.21 354.04 365.65 362.10 371.43 368.49 C 384.84 386.23 401.43 402.17 409.86 423.16 C 414.33 436.91 419.60 450.38 424.49 463.99 C 425.38 465.92 424.81 468.05 424.68 470.08 C 423.47 482.52 426.46 495.21 423.33 507.49 C 422.30 511.16 420.61 514.67 418.03 517.51 C 406.86 520.15 394.84 515.01 387.41 506.59 C 380.61 499.75 373.11 493.50 367.28 485.77 C 358.54 472.31 350.66 458.32 342.76 444.35 C 333.58 427.48 325.93 409.64 321.79 390.83 C 319.90 382.56 317.85 374.32 316.22 365.99 C 315.63 358.01 313.96 350.13 313.98 342.10 Z" />
<path fill="#fcfcfc" d=" M 249.73 348.77 C 254.82 344.38 259.83 338.78 266.93 338.07 C 268.47 337.65 269.88 338.50 271.22 339.14 C 260.11 361.87 249.70 384.93 238.71 407.72 C 228.39 427.94 216.98 447.85 202.02 465.02 C 197.46 470.41 193.07 476.03 187.54 480.48 C 175.37 490.53 160.58 496.64 147.98 506.08 C 145.25 508.60 141.25 508.10 137.84 507.92 C 133.18 507.50 129.62 503.51 128.95 499.01 C 127.11 487.98 131.00 477.12 134.97 467.00 C 139.78 448.83 146.83 431.05 157.68 415.60 C 158.79 414.08 159.54 412.11 161.36 411.30 C 171.57 406.26 182.26 402.28 192.64 397.65 C 212.68 382.58 231.15 365.57 249.73 348.77 Z" />
<path fill="#fcfcfc" d=" M 277.35 341.47 L 277.93 341.09 C 284.28 341.32 290.63 340.83 296.99 340.80 C 301.08 340.40 303.97 343.91 306.23 346.81 C 310.14 352.02 310.70 358.70 310.87 364.97 C 312.60 373.72 314.85 382.37 316.78 391.08 C 317.23 392.98 316.81 394.93 316.55 396.83 C 312.51 424.64 309.48 453.26 297.40 478.99 C 289.29 496.41 281.98 514.64 269.37 529.43 C 263.85 535.66 257.34 541.31 249.56 544.47 C 245.72 546.11 240.94 546.00 237.59 543.35 C 233.60 540.37 231.85 535.49 230.06 531.04 C 227.25 522.65 226.01 513.84 224.70 505.12 C 222.82 496.11 224.87 486.96 225.08 477.89 C 227.06 455.57 230.05 432.41 241.84 412.86 C 253.06 391.13 263.53 369.01 274.24 347.03 C 275.27 345.19 275.80 342.95 277.35 341.47 Z" />
<path fill="#fcfcfc" d=" M 374.28 363.19 C 380.50 367.16 386.20 371.98 392.85 375.25 C 418.08 388.21 441.44 404.51 466.89 417.05 C 470.11 419.18 474.06 419.21 477.60 420.45 C 487.48 431.86 494.79 445.93 496.84 460.99 C 498.21 469.34 496.36 478.69 489.87 484.55 C 474.38 482.63 458.27 481.79 443.94 474.96 C 436.82 471.39 430.25 465.72 427.56 458.02 C 423.89 448.03 420.18 438.06 416.62 428.04 C 412.45 413.67 404.00 400.99 394.68 389.46 C 387.56 380.95 381.17 371.88 374.28 363.19 Z" />
<path fill="#fcfcfc" d=" M 315.32 448.05 C 318.60 435.92 320.40 423.45 321.66 410.97 C 327.63 425.62 334.12 440.10 342.21 453.73 C 348.90 465.89 356.26 477.66 363.69 489.38 C 371.12 498.87 380.83 506.22 388.85 515.18 C 389.88 526.41 388.04 538.02 382.77 548.05 C 380.22 552.50 376.26 556.80 370.91 557.48 C 365.99 558.35 361.75 554.99 356.93 554.81 C 350.25 553.85 345.24 548.74 341.70 543.35 C 335.87 533.64 332.64 522.65 327.25 512.72 C 326.04 510.54 324.45 508.53 323.72 506.12 C 318.73 489.80 314.07 473.09 313.91 455.90 C 313.74 453.21 314.70 450.63 315.32 448.05 Z" />
<path fill="#fcfcfc" d=" M 223.62 447.37 C 221.14 463.49 218.76 479.68 218.34 496.02 C 218.35 500.69 218.63 505.37 218.48 510.04 C 212.69 515.44 206.39 520.29 200.27 525.30 C 193.36 530.66 184.96 534.97 176.00 534.58 C 170.91 533.76 166.59 529.91 164.93 525.07 C 162.47 518.09 164.27 510.55 167.03 503.96 C 168.48 501.05 170.00 497.85 172.97 496.22 C 180.85 491.57 188.61 486.57 195.25 480.23 C 205.30 469.79 214.05 458.22 223.62 447.37 Z" />
<path fill="#fcfcfc" d=" M 307.45 468.86 C 312.71 489.64 317.83 510.81 328.33 529.69 C 332.64 536.88 336.08 544.52 339.94 551.95 C 340.48 553.16 341.54 554.55 340.75 555.93 C 337.44 564.85 333.20 573.66 326.71 580.74 C 324.22 583.33 320.73 585.85 316.93 584.83 C 312.36 582.99 310.18 578.25 307.60 574.40 C 296.91 558.17 293.50 538.12 294.72 518.98 C 295.08 514.94 294.83 510.87 295.46 506.87 C 297.35 493.61 303.44 481.52 307.45 468.86 Z" />
</svg>
